<?xml version="1.0"?><svg xmlns="http://www.w3.org/2000/svg" id="Layer_1" data-name="Layer 1" viewBox="0 0 24 24"><path d="M17.88,0h-4.25c-2.35,0-4.26,2.17-4.26,4.83v3.78h-2.25c-.55,0-1,.45-1,1v3.83c0,.55.45,1,1,1h2.25v8.57c0,.55.45,1,1,1h3.26c.55,0,1-.45,1-1v-8.57h2.85c.51,0,.94-.39.99-.89l.41-3.83c.03-.28-.06-.56-.25-.77-.19-.21-.46-.33-.74-.33h-3.25v-2.78h3.25c.55,0,1-.45,1-1V1c0-.55-.45-1-1-1ZM16.88,3.83h-2.44c-1,0-1.81.88-1.81,1.96v3.83c0,.55.45,1,1,1h3.14l-.19,1.83h-2.95c-.55,0-1,.45-1,1v8.57h-1.26v-8.57c0-.55-.45-1-1-1h-2.25v-1.83h2.25c.55,0,1-.45,1-1v-4.78c0-1.56,1.01-2.83,2.26-2.83h3.25v1.83Z"/></svg>