<?xml version="1.0"?><svg xmlns="http://www.w3.org/2000/svg" id="Layer_1" data-name="Layer 1" viewBox="0 0 24 24"><path d="M16.27,14.72l-1.33-.8c-.76-.46-1.34,1.02-2.11.67-1.42-.64-2.76-1.98-3.41-3.41-.35-.78,1.13-1.35.67-2.11-.17-.29-.83-1.44-1.02-1.61-.3-.29-.7-.22-1.01.09-2.65,2.65,1.89,8.17,5.43,9.06,1.06.26,2.12.16,2.92-.61h0c.22-.22.37-.41.3-.76-.05-.24-.24-.39-.44-.51Z"/><path d="M10.36.15C5.33.96,1.35,5.06.67,10.14c-.34,2.6.16,5.15,1.45,7.4l-2.13,6.46,6.47-2.12c2.25,1.29,4.79,1.79,7.39,1.45,5.07-.68,9.18-4.66,9.98-9.69.6-3.8-.59-7.52-3.28-10.21C17.88.74,14.16-.45,10.36.15ZM21.87,13.32c-.66,4.16-4.06,7.46-8.27,8.03-2.29.31-4.53-.18-6.47-1.4l-.4-.25-3.6,1.18,1.18-3.59-.25-.4c-1.23-1.95-1.71-4.19-1.41-6.48.56-4.21,3.86-7.61,8.02-8.28,3.15-.5,6.25.48,8.48,2.71,2.23,2.23,3.22,5.32,2.72,8.48Z"/></svg>