<?xml version="1.0"?><svg xmlns="http://www.w3.org/2000/svg" id="Layer_1" data-name="Layer 1" viewBox="0 0 24 24"><path d="M18.5,3.37H5.5C2.47,3.37,0,5.84,0,8.87v6.26c0,3.04,2.47,5.5,5.5,5.5h12.99c3.03,0,5.5-2.47,5.5-5.5v-6.26c0-3.04-2.47-5.5-5.5-5.5ZM22,15.13c0,1.93-1.57,3.5-3.5,3.5H5.5c-1.93,0-3.5-1.57-3.5-3.5v-6.26c0-1.93,1.57-3.5,3.5-3.5h12.99c1.93,0,3.5,1.57,3.5,3.5v6.26Z"/><path d="M15.27,10.43l-4.96-2.44c-.56-.28-1.21-.25-1.74.08-.53.33-.84.9-.84,1.52v4.82c0,.62.31,1.18.84,1.51.29.18.62.28.95.28.26,0,.53-.06.77-.18l4.96-2.38c.62-.3,1.01-.91,1.02-1.6,0-.69-.38-1.31-1-1.61ZM9.73,14.07v-4.14l4.27,2.1-4.27,2.04Z"/></svg>